<svg width="34" height="34" viewBox="0 0 34 34" fill="none" xmlns="http://www.w3.org/2000/svg">
<g id="bx:bxs-lock-alt" opacity="0.3">
<path id="Vector" d="M28.3423 16.8065C28.3423 15.2912 27.11 14.0589 25.5947 14.0589H24.2209V9.93743C24.2209 6.14982 21.1394 3.06836 17.3518 3.06836C13.5642 3.06836 10.4828 6.14982 10.4828 9.93743V14.0589H9.10895C7.59364 14.0589 6.36133 15.2912 6.36133 16.8065V27.797C6.36133 29.3123 7.59364 30.5446 9.10895 30.5446H25.5947C27.11 30.5446 28.3423 29.3123 28.3423 27.797V16.8065ZM13.2304 9.93743C13.2304 7.66514 15.0795 5.81599 17.3518 5.81599C19.6241 5.81599 21.4733 7.66514 21.4733 9.93743V14.0589H13.2304V9.93743Z" fill="#333333"/>
</g>
</svg>
